<?xml version="1.0" standalone="no"?>
<!DOCTYPE svg PUBLIC "-//W3C//DTD SVG 20010904//EN"
 "http://www.w3.org/TR/2001/REC-SVG-20010904/DTD/svg10.dtd">
<svg version="1.0" xmlns="http://www.w3.org/2000/svg"
 width="332.000000pt" height="332.000000pt" viewBox="0 0 332.000000 332.000000"
 preserveAspectRatio="xMidYMid meet">
<metadata>
Created by potrace 1.14, written by Peter Selinger 2001-2017
</metadata>
<g transform="translate(0.000000,332.000000) scale(0.100000,-0.100000)"
fill="#000000" stroke="none">
<path d="M2710 2565 c0 -170 4 -305 9 -305 5 0 12 -24 15 -54 6 -46 11 -55 31
-60 16 -4 27 -18 35 -41 9 -27 17 -35 36 -35 14 0 27 -7 31 -17 10 -25 29 -43
46 -43 8 0 18 -11 21 -25 5 -18 15 -27 36 -32 17 -3 30 -10 30 -16 0 -17 42
-47 65 -47 16 0 25 -8 29 -25 4 -14 11 -25 16 -25 6 0 10 -7 10 -15 0 -8 6
-15 13 -15 8 0 19 -18 26 -40 6 -22 16 -40 21 -40 6 0 10 -11 10 -25 0 -15 6
-25 14 -25 17 0 26 -44 26 -134 0 -110 -8 -143 -36 -150 -13 -4 -24 -14 -24
-23 0 -36 -24 -82 -46 -87 -13 -3 -26 -16 -30 -28 -8 -26 -28 -48 -44 -48 -6
0 -16 -13 -21 -30 -6 -16 -15 -30 -20 -30 -5 0 -9 -7 -9 -15 0 -8 -9 -15 -20
-15 -11 0 -20 -4 -20 -10 0 -5 -16 -12 -35 -16 -20 -3 -35 -12 -35 -20 0 -8
-4 -14 -10 -14 -5 0 -12 -11 -16 -25 -4 -16 -13 -25 -26 -25 -11 0 -26 -7 -34
-15 -9 -8 -26 -15 -39 -15 -16 0 -25 -7 -29 -25 -5 -18 -15 -27 -36 -32 -20
-3 -30 -12 -30 -23 0 -13 -12 -19 -50 -24 -34 -5 -50 -11 -50 -21 0 -10 -11
-15 -35 -15 -19 0 -35 -4 -35 -9 0 -5 -22 -11 -50 -15 -39 -5 -50 -11 -50 -25
0 -16 -13 -19 -110 -26 -60 -3 -110 -11 -110 -16 0 -5 -25 -9 -55 -9 -39 0
-55 -4 -55 -13 0 -14 -151 -27 -317 -27 -65 0 -73 -2 -73 -19 0 -16 -12 -19
-110 -26 -60 -3 -110 -11 -110 -16 0 -5 -16 -9 -35 -9 -23 0 -35 -5 -35 -14 0
-10 -36 -15 -162 -20 -90 -4 -164 -11 -166 -17 -2 -5 -33 -9 -68 -9 -50 0 -64
-3 -64 -15 0 -8 -9 -15 -20 -15 -16 0 -20 -7 -20 -30 0 -28 2 -30 38 -30 109
0 222 13 222 26 0 11 25 14 115 14 70 0 115 4 115 10 0 6 18 10 40 10 29 0 40
4 40 15 0 11 11 15 39 15 22 0 41 5 43 11 2 6 66 12 166 16 126 5 162 9 162
20 0 10 21 13 90 13 50 0 90 4 90 9 0 5 45 13 100 16 89 7 100 10 100 26 0 17
8 19 64 19 82 0 126 9 126 26 0 9 11 14 30 14 17 0 30 5 30 10 0 6 11 10 24
10 51 0 86 12 86 30 0 19 27 30 73 30 15 0 27 5 27 10 0 6 18 10 40 10 40 0
40 0 40 39 0 36 2 39 35 44 36 6 65 27 65 46 0 6 6 11 13 11 18 0 57 34 57 49
0 6 9 11 20 11 11 0 20 5 20 10 0 6 7 10 15 10 8 0 15 7 15 15 0 9 8 19 18 22
24 9 38 25 46 51 4 12 12 22 17 22 5 0 9 7 9 15 0 8 7 15 15 15 9 0 21 12 28
28 14 33 26 46 50 55 10 4 17 17 17 32 0 14 4 25 9 25 5 0 12 11 15 25 4 14
13 25 21 25 13 0 15 25 15 160 0 129 -3 160 -14 160 -7 0 -16 13 -19 30 -6 30
-39 70 -57 70 -5 0 -10 11 -10 25 0 14 -3 25 -8 25 -4 0 -13 14 -20 30 -8 17
-20 30 -28 30 -8 0 -14 7 -14 15 0 9 -14 17 -40 21 -34 6 -41 11 -50 40 -7 19
-18 34 -26 34 -8 0 -14 6 -14 14 0 8 -13 17 -30 21 -22 5 -30 12 -30 28 0 33
-11 43 -52 51 -23 4 -38 13 -38 21 0 8 -6 15 -14 15 -18 0 -26 22 -33 97 -3
35 -10 63 -14 63 -5 0 -9 119 -9 265 l0 265 -30 0 -30 0 0 -305z"/>
<path d="M2430 2735 c0 -8 -7 -15 -15 -15 -8 0 -15 -4 -15 -9 0 -5 -29 -13
-65 -16 -54 -6 -65 -10 -65 -26 0 -13 -10 -20 -35 -25 -20 -3 -35 -12 -35 -20
0 -9 -12 -14 -36 -14 -19 0 -42 -7 -50 -15 -9 -8 -26 -15 -40 -15 -17 0 -24
-5 -24 -20 0 -11 -7 -20 -15 -20 -9 0 -18 -7 -21 -15 -4 -8 -12 -15 -20 -15
-8 0 -14 -6 -14 -14 0 -7 -9 -16 -20 -19 -12 -3 -20 -14 -20 -25 0 -13 -9 -22
-25 -26 -23 -6 -25 -11 -25 -61 0 -54 0 -55 30 -55 20 0 30 5 30 15 0 8 4 15
10 15 5 0 13 18 16 39 4 27 12 41 25 44 11 3 19 14 19 25 0 15 9 21 40 26 22
3 40 11 40 17 0 18 28 39 53 39 52 0 87 12 87 30 0 19 27 30 73 30 15 0 27 5
27 10 0 6 7 10 15 10 8 0 15 6 15 14 0 9 18 16 55 21 45 5 55 10 55 26 0 10 5
19 10 19 6 0 10 14 10 30 0 28 -3 30 -35 30 -24 0 -35 -5 -35 -15z"/>
<path d="M670 2561 c0 -14 -10 -20 -40 -25 -22 -3 -40 -11 -40 -16 0 -6 -18
-10 -40 -10 -27 0 -40 -4 -40 -14 0 -8 -15 -17 -35 -20 -25 -5 -35 -12 -35
-25 0 -16 -11 -20 -65 -26 -36 -3 -65 -11 -65 -16 0 -5 -7 -9 -15 -9 -8 0 -15
-6 -15 -14 0 -9 -19 -16 -60 -20 -33 -4 -60 -11 -60 -16 0 -6 -11 -10 -24 -10
-17 0 -26 -7 -30 -25 -5 -21 -12 -25 -41 -25 -32 0 -35 -2 -35 -30 0 -30 1
-30 55 -30 30 0 55 5 55 10 0 6 7 10 16 10 9 0 18 9 21 20 4 17 14 20 54 20
27 0 49 5 49 10 0 6 7 10 15 10 8 0 15 7 15 15 0 9 9 15 25 15 14 0 25 5 25
10 0 6 15 10 33 10 47 0 77 10 77 26 0 8 9 14 20 14 11 0 20 5 20 10 0 6 13
10 29 10 57 0 91 12 91 31 0 14 11 20 50 25 32 4 50 11 50 20 0 9 11 14 30 14
20 0 30 -5 30 -15 0 -10 10 -15 30 -15 29 0 30 1 30 50 l0 50 -90 0 c-81 0
-90 -2 -90 -19z"/>
<path d="M2310 2295 c0 -202 -2 -235 -15 -235 -8 0 -15 -7 -15 -15 0 -8 -9
-15 -20 -15 -11 0 -20 6 -20 14 0 7 -9 16 -20 19 -12 3 -20 14 -20 26 0 24
-29 61 -47 61 -8 0 -13 14 -13 40 0 33 -3 40 -20 40 -17 0 -20 -7 -20 -46 0
-52 18 -124 32 -124 4 0 8 -7 8 -15 0 -8 6 -15 14 -15 8 0 18 -10 22 -22 3
-12 12 -28 20 -35 18 -18 121 -17 140 1 11 12 14 64 14 285 0 264 0 271 -20
271 -19 0 -20 -7 -20 -235z"/>
<path d="M790 2325 c0 -23 5 -35 14 -35 20 0 26 -33 26 -150 0 -152 -6 -178
-41 -185 -16 -4 -29 -13 -29 -21 0 -8 -4 -14 -9 -14 -5 0 -12 -13 -16 -30 -4
-16 -13 -30 -20 -30 -8 0 -17 -9 -20 -21 -9 -27 -36 -59 -51 -59 -7 0 -15 -11
-18 -25 -6 -23 -11 -25 -61 -25 -30 0 -55 5 -55 10 0 6 -9 10 -20 10 -11 0
-20 7 -20 15 0 9 -7 18 -15 21 -8 4 -15 14 -15 24 0 29 -11 50 -26 50 -8 0
-14 6 -14 13 0 20 -38 47 -65 47 -20 0 -25 -5 -25 -26 0 -26 20 -54 39 -54 6
0 11 -6 11 -14 0 -8 6 -21 13 -28 8 -7 17 -26 21 -41 3 -15 13 -27 21 -27 7 0
17 -10 21 -22 10 -35 21 -38 127 -38 91 0 99 2 104 20 3 11 9 20 13 20 5 0 12
9 15 20 3 11 13 20 21 20 8 0 14 7 14 15 0 9 7 18 15 21 8 3 17 15 21 27 8 25
28 47 43 47 6 0 11 6 11 13 0 7 9 20 20 30 11 9 20 26 20 37 0 11 7 20 15 20
13 0 15 26 15 175 0 143 -3 175 -14 175 -8 0 -17 11 -20 25 -5 20 -13 25 -36
25 -28 0 -30 -3 -30 -35z"/>
<path d="M2038 1563 c-10 -2 -18 -9 -18 -14 0 -5 -9 -9 -20 -9 -11 0 -20 -7
-20 -15 0 -8 -7 -15 -15 -15 -8 0 -15 -4 -15 -10 0 -5 -16 -10 -35 -10 -23 0
-35 -5 -35 -14 0 -8 -15 -17 -35 -20 -19 -4 -35 -11 -35 -16 0 -6 -13 -10 -30
-10 -20 0 -30 -5 -30 -15 0 -11 -11 -15 -39 -15 -55 0 -71 -8 -71 -36 0 -21
-4 -24 -40 -24 -38 0 -40 -2 -40 -30 0 -29 2 -30 44 -30 54 0 76 8 76 26 0 8
9 14 20 14 11 0 20 5 20 10 0 6 20 10 45 10 33 0 45 4 45 15 0 8 7 15 15 15 8
0 15 4 15 10 0 5 23 12 50 16 32 4 50 11 50 20 0 9 12 14 35 14 19 0 35 4 35
9 0 5 9 11 20 14 11 3 20 12 20 21 0 12 10 16 35 16 19 0 35 5 35 10 0 6 14
10 30 10 27 0 30 -3 30 -30 0 -16 5 -30 10 -30 6 0 10 -57 10 -150 0 -127 -2
-150 -15 -150 -8 0 -15 -7 -15 -15 0 -9 -9 -15 -24 -15 -13 0 -26 -7 -30 -15
-3 -9 -19 -15 -41 -15 -24 0 -35 -4 -35 -15 0 -12 -16 -15 -80 -15 -61 0 -80
3 -80 14 0 7 -13 16 -30 19 -21 5 -31 14 -36 32 -4 16 -13 25 -25 25 -10 0
-19 5 -19 10 0 6 -7 10 -15 10 -8 0 -15 7 -15 15 0 10 -10 15 -30 15 -28 0
-30 -2 -30 -40 0 -29 4 -40 15 -40 8 0 15 -4 15 -9 0 -5 14 -12 30 -16 17 -4
30 -12 30 -19 0 -6 9 -18 20 -26 11 -8 20 -20 20 -27 0 -7 7 -13 15 -13 8 0
15 -4 15 -10 0 -6 52 -10 135 -10 83 0 135 4 135 10 0 6 7 10 15 10 8 0 15 7
15 15 0 8 7 15 15 15 8 0 15 5 15 10 0 6 7 10 15 10 8 0 15 7 15 15 0 9 9 15
25 15 l25 0 0 194 c0 106 -3 214 -6 240 l-7 46 -91 -1 c-50 -1 -99 -3 -108 -6z"/>
</g>
</svg>
